<?xml version="1.0" encoding="UTF-8"?>
<svg version="1.1" xmlns="http://www.w3.org/2000/svg" width="1024" height="1024">
<path d="M0 0 C2.02262587 1.06928629 4.00158517 2.22290972 5.9453125 3.4296875 C6.50859253 3.77602737 7.07187256 4.12236725 7.65222168 4.47920227 C8.85665213 5.22067538 10.05905621 5.96544851 11.25958252 6.71322632 C14.40353373 8.6712651 17.56210151 10.60549301 20.71875 12.54296875 C21.34455963 12.92800064 21.97036926 13.31303253 22.61514282 13.70973206 C28.6546971 17.41926303 34.77426696 20.98141475 40.92407227 24.50463867 C45.76430798 27.27786594 50.55170267 30.12100958 55.28515625 33.07421875 C56.96852119 34.15835193 56.96852119 34.15835193 59 34 C60.00552779 34.99444148 61.00437248 35.99564656 62 37 C63.5536743 38.03403912 65.13872004 39.02155839 66.7421875 39.9765625 C67.7113208 40.55623779 68.6804541 41.13591309 69.67895508 41.7331543 C71.26099731 42.66961792 71.26099731 42.66961792 72.875 43.625 C74.52568481 44.60883667 74.52568481 44.60883667 76.2097168 45.61254883 C85.94545871 51.4093021 95.72553165 57.13133522 105.50878906 62.84741211 C113.5660925 67.5573081 121.57943231 72.33587466 129.56689453 77.16333008 C134.44250128 80.09912931 139.35598788 82.91709358 144.41796875 85.5234375 C146.64688384 86.7980667 148.72324447 88.1505833 150.84375 89.59375 C156.813169 93.61190017 163.01505148 97.23451862 169.21154785 100.88668823 C172.07442049 102.57407977 174.93404321 104.26694413 177.79385376 105.95951843 C179.21961761 106.80330457 180.64553999 107.64682289 182.07162476 108.49006653 C189.97997873 113.16720589 197.85595133 117.89771191 205.72851562 122.63476562 C208.04135097 124.02485325 210.35629256 125.41136882 212.671875 126.796875 C223.86915502 133.49905472 235.03191332 140.25694853 246.18164062 147.0378418 C246.75166809 147.38439316 247.32169556 147.73094452 247.90899658 148.08799744 C249.56620811 149.09568973 251.22304953 150.1039906 252.87988281 151.11230469 C256.59910354 153.36246233 260.33864979 155.57725959 264.08740234 157.77783203 C266 159 266 159 268 161 C268.27710605 163.15676308 268.27710605 163.15676308 268.31562424 165.88442993 C268.33484169 166.91632069 268.35405913 167.94821144 268.37385893 169.01137161 C268.38476954 170.14666683 268.39568015 171.28196205 268.40692139 172.45166016 C268.42577534 173.64018963 268.4446293 174.8287191 268.46405458 176.05326462 C268.5133025 179.32098578 268.5534124 182.58866051 268.58891541 185.85655546 C268.62032316 188.61943135 268.65870394 191.3821942 268.69688724 194.14498341 C269.07832131 221.92635943 269.18011149 249.70925282 269.20018864 277.49300003 C269.20318511 281.45447142 269.20727351 285.4159409 269.21169281 289.37741089 C269.22375919 300.44595684 269.23411319 311.51450123 269.2375679 322.58305359 C269.23778747 323.27621817 269.23800703 323.96938275 269.23823325 324.68355232 C269.23845153 325.37770318 269.23866981 326.07185403 269.2388947 326.78703976 C269.23933808 328.19217364 269.23978464 329.59730752 269.24023438 331.00244141 C269.2404558 331.69933488 269.24067723 332.39622835 269.24090537 333.11423981 C269.24490692 344.56246405 269.26257603 356.0106268 269.2855939 367.45882702 C269.30928141 379.3383451 269.32176685 391.21783188 269.32293582 403.09737396 C269.3238487 409.71922382 269.32984059 416.34100049 269.34775543 422.96282959 C269.36415613 429.13593597 269.36643101 435.30888384 269.35761642 441.48200417 C269.35684369 443.74399045 269.36121966 446.00598511 269.37107468 448.26795006 C269.38371511 451.34817708 269.37796239 454.42783423 269.36749268 457.50805664 C269.37554908 458.40516546 269.38360548 459.30227428 269.39190602 460.22656822 C269.35393096 464.98519591 269.08202166 468.12907801 266 472 C264.07446289 473.59204102 264.07446289 473.59204102 261.91015625 474.94140625 C261.11109863 475.44687988 260.31204102 475.95235352 259.48876953 476.47314453 C258.66747559 476.97700684 257.84618164 477.48086914 257 478 C256.23671387 478.47937012 255.47342773 478.95874023 254.68701172 479.45263672 C252.27824744 480.96046323 249.85910744 482.45039607 247.4375 483.9375 C245.58436162 485.0802853 243.73150841 486.22353313 241.87890625 487.3671875 C240.91871582 487.95983398 239.95852539 488.55248047 238.96923828 489.16308594 C233.92860663 492.28146388 228.90106147 495.42070809 223.875 498.5625 C222.86969238 499.19091797 221.86438477 499.81933594 220.82861328 500.46679688 C213.68842298 504.93447957 206.56538014 509.42878255 199.44873047 513.93383789 C195.15007966 516.65200731 190.8370175 519.34323582 186.5 522 C178.77430916 526.73320806 171.12638496 531.58866798 163.47167969 536.43554688 C159.48308057 538.96013628 155.49142501 541.47988175 151.5 544 C149.91665119 544.99997549 148.33331787 545.99997552 146.75 547 C137.25 553 137.25 553 134.87304688 554.5012207 C133.29620848 555.49712718 131.71938546 556.49305801 130.14257812 557.48901367 C126.08500073 560.05184869 122.02712366 562.6142073 117.96875 565.17578125 C116.31247837 566.2213199 114.65622808 567.26689236 113 568.3125 C111.79670044 569.07216064 111.79670044 569.07216064 110.5690918 569.84716797 C106.47796094 572.43108505 102.39129981 575.02164048 98.3125 577.625 C89.6124987 583.16742043 80.8573034 588.62306897 72.078125 594.0390625 C62.16107448 600.15779324 52.28759437 606.33652581 42.46923828 612.61254883 C37.53923805 615.76011058 32.59558462 618.8832305 27.62890625 621.97265625 C26.56454346 622.63475098 25.50018066 623.2968457 24.40356445 623.97900391 C22.36848094 625.24287632 20.33196167 626.50444117 18.29370117 627.76318359 C13.62184041 630.66467615 9.1318767 633.63664224 4.734375 636.94140625 C1.5891455 639.15960431 0.11382426 639.98063571 -3.765625 640.640625 C-7.42448114 639.91592403 -9.64606589 638.81369673 -12.75 636.75 C-13.89445772 636.00639723 -15.03899376 635.26291501 -16.18359375 634.51953125 C-16.79702637 634.11299316 -17.41045898 633.70645508 -18.04248047 633.28759766 C-21.5974424 630.94925029 -25.21072329 628.70276364 -28.8125 626.4375 C-30.44806384 625.40257631 -32.08347542 624.36741195 -33.71875 623.33203125 C-39.40236746 619.74006228 -45.10750799 616.18288298 -50.8125 612.625 C-61.34102155 606.05462597 -71.8211397 599.41097583 -82.28222656 592.73388672 C-87.76742799 589.23443464 -93.25828652 585.74386324 -98.74829102 582.25195312 C-103.34640866 579.32680676 -107.94266767 576.3988212 -112.53515625 573.46484375 C-122.41847361 567.15508135 -132.33604842 560.90847478 -142.31665039 554.75366211 C-148.06752352 551.20490652 -153.79234858 547.61781864 -159.5 544 C-166.90979142 539.30492314 -174.35600907 534.67182755 -181.8190918 530.06201172 C-191.54556843 524.05147734 -201.2373872 517.98584425 -210.9296875 511.92041016 C-214.01460047 509.99086774 -217.10083118 508.06345094 -220.1875 506.13671875 C-230.24333384 499.85890839 -240.29291137 493.57205612 -250.3059082 487.22607422 C-254.06681686 484.84412471 -257.83591644 482.4775471 -261.625 480.140625 C-262.36234375 479.68469971 -263.0996875 479.22877441 -263.859375 478.7590332 C-265.24261677 477.90507704 -266.627901 477.0544165 -268.015625 476.20776367 C-274.05867639 472.47291035 -274.05867639 472.47291035 -276 470 C-276.38870484 467.65644348 -276.38870484 467.65644348 -276.40824986 464.83022881 C-276.42285678 463.75343672 -276.43746371 462.67664463 -276.45251328 461.56722248 C-276.45332443 460.37979705 -276.45413558 459.19237163 -276.45497131 457.96896362 C-276.46741251 456.71093276 -276.47985371 455.4529019 -276.49267191 454.15674889 C-276.52663288 450.65781667 -276.54163817 447.15901865 -276.55342352 443.65995073 C-276.56923585 439.88875741 -276.60203443 436.11770388 -276.63221741 432.34660339 C-276.70103884 423.2354552 -276.74035223 414.12427107 -276.77506533 405.0129382 C-276.78846714 401.58210817 -276.80351146 398.15128613 -276.81853561 394.72046288 C-276.88441786 379.59839087 -276.94054632 364.47631007 -276.97176456 349.35412407 C-276.97953389 345.65242365 -276.98737754 341.9507234 -276.99536133 338.24902344 C-276.99733717 337.32898077 -276.99931301 336.40893811 -277.00134873 335.46101536 C-277.03495335 320.55824791 -277.12672905 305.65642969 -277.24254567 290.75409757 C-277.36047491 275.4547111 -277.42560532 260.15580944 -277.43924993 244.85596859 C-277.44824191 236.26515068 -277.48047476 227.67578659 -277.57191658 219.08541489 C-277.6496588 211.76864906 -277.67966377 204.45365014 -277.64755888 197.13650732 C-277.6326433 193.40342705 -277.64024785 189.67402932 -277.7092514 185.94147682 C-278.09067378 164.14417895 -278.09067378 164.14417895 -274.64024806 158.95505953 C-270.94332577 155.33199648 -266.80697237 153.72486236 -262 152 C-260.06066174 150.87449862 -258.14058579 149.7138585 -256.2578125 148.49609375 C-254.54827033 147.47422456 -252.83736626 146.45462973 -251.125 145.4375 C-250.23425781 144.90576172 -249.34351563 144.37402344 -248.42578125 143.82617188 C-246.28510045 142.54866882 -244.1431981 141.27327367 -242 140 C-242.33 139.34 -242.66 138.68 -243 138 C-242.22527344 137.95875 -241.45054687 137.9175 -240.65234375 137.875 C-235.34340821 136.60312667 -231.18822499 133.83574814 -226.5625 131 C-225.584021 130.41057617 -224.60554199 129.82115234 -223.59741211 129.21386719 C-221.63155704 128.02870282 -219.66804989 126.83963427 -217.70703125 125.64648438 C-214.76792756 123.85884771 -211.81766084 122.09076346 -208.86425781 120.3269043 C-206.48639906 118.9056665 -204.11338852 117.47643791 -201.74023438 116.04736328 C-198.76627909 114.25748278 -195.78923659 112.47274974 -192.8125 110.6875 C-188.72635227 108.23688174 -184.64124341 105.78456753 -180.55859375 103.328125 C-162.67544251 92.57421762 -144.72271573 81.93691017 -126.72583008 71.37451172 C-121.67986498 68.40940233 -116.66024715 65.40197363 -111.64575195 62.3840332 C-107.09155763 59.6464969 -102.51901604 56.94152628 -97.9375 54.25 C-97.25373291 53.84716797 -96.56996582 53.44433594 -95.86547852 53.02929688 C-91.59770308 50.5170706 -87.31840596 48.02589839 -83.03125 45.546875 C-80.99995288 44.36466429 -78.9687024 43.18237344 -76.9375 42 C-75.95450928 41.43571289 -74.97151855 40.87142578 -73.95874023 40.29003906 C-72.60051147 39.49678223 -72.60051147 39.49678223 -71.21484375 38.6875 C-70.40136475 38.21699219 -69.58788574 37.74648437 -68.74975586 37.26171875 C-68.17233643 36.84535156 -67.59491699 36.42898437 -67 36 C-67 35.34 -67 34.68 -67 34 C-66.26982666 33.88696533 -65.53965332 33.77393066 -64.78735352 33.6574707 C-61.89180048 32.9744783 -59.9411328 32.01066494 -57.40234375 30.48046875 C-56.09148804 29.69784668 -56.09148804 29.69784668 -54.75415039 28.89941406 C-53.82465576 28.33448242 -52.89516113 27.76955078 -51.9375 27.1875 C-50.48234985 26.31496582 -50.48234985 26.31496582 -48.99780273 25.42480469 C-46.98329812 24.21587283 -44.97069945 23.00375967 -42.95996094 21.78857422 C-40.18834521 20.11380873 -37.41187418 18.44752914 -34.6328125 16.78515625 C-33.7867041 16.27855469 -32.9405957 15.77195313 -32.06884766 15.25 C-30.40752873 14.25573315 -28.7457499 13.26223433 -27.08349609 12.26953125 C-23.22548748 9.95984836 -19.38948 7.62571468 -15.59375 5.21484375 C-14.90982178 4.78655273 -14.22589355 4.35826172 -13.52124023 3.91699219 C-12.2577643 3.12391419 -11.00139734 2.3193403 -9.75415039 1.50097656 C-5.98138139 -0.85011397 -4.21728887 -1.26668502 0 0 Z M-25.484375 79.81640625 C-29.26062559 82.1781666 -33.09404307 84.43724405 -36.9375 86.6875 C-37.64455078 87.10185303 -38.35160156 87.51620605 -39.08007812 87.94311523 C-40.585219 88.82514768 -42.09042974 89.7070609 -43.59570312 90.58886719 C-47.96544829 93.15356327 -52.32609916 95.73364825 -56.6875 98.3125 C-57.61361084 98.85994873 -58.53972168 99.40739746 -59.49389648 99.97143555 C-61.38577573 101.08978701 -63.27762126 102.20819551 -65.16943359 103.32666016 C-68.86606823 105.51199169 -72.56312161 107.69661407 -76.26025391 109.88110352 C-78.09203744 110.96349138 -79.92374273 112.04601168 -81.75537109 113.12866211 C-86.30023788 115.81492394 -90.84617726 118.49933384 -95.39453125 121.1796875 C-106.30212081 127.61080309 -117.17506062 134.09691761 -128.02783203 140.62011719 C-135.92554833 145.36391128 -143.8541579 150.05174185 -151.80224609 154.71044922 C-164.29751376 162.04215371 -176.75737258 169.43342536 -189.1875 176.875 C-190.20199219 177.48110107 -191.21648437 178.08720215 -192.26171875 178.71166992 C-197.19322091 181.66935456 -202.1068464 184.65563857 -206.98828125 187.6953125 C-207.85622314 188.23430176 -208.72416504 188.77329102 -209.6184082 189.32861328 C-213.19567212 191.83911546 -215.60175626 193.80526878 -217 198 C-217.09045573 199.34273643 -217.12730295 200.68951059 -217.12863445 202.03528976 C-217.1318589 202.85902737 -217.13508335 203.68276498 -217.1384055 204.53146434 C-217.1368569 205.43621477 -217.1353083 206.34096521 -217.13371277 207.27313232 C-217.13597833 208.234475 -217.13824388 209.19581767 -217.14057809 210.18629193 C-217.14693085 213.42205825 -217.1460879 216.65778281 -217.14526367 219.89355469 C-217.14825441 222.20773371 -217.15165673 224.52191223 -217.15544128 226.83609009 C-217.16429515 233.13370493 -217.16662001 239.4313062 -217.16725707 245.72892666 C-217.16820529 250.98240276 -217.17188267 256.23587568 -217.17542917 261.48935056 C-217.18311345 273.17504632 -217.18609731 284.86073545 -217.18542381 296.54643354 C-217.18538386 297.24782922 -217.1853439 297.9492249 -217.18530273 298.671875 C-217.18526185 299.37412741 -217.18522097 300.07637982 -217.18517885 300.7999126 C-217.18477257 312.17609372 -217.19433703 323.55224171 -217.2084411 334.92841324 C-217.22280885 346.60948309 -217.22952795 358.29053526 -217.22884732 369.97161412 C-217.22859216 376.52954035 -217.23145322 383.08742911 -217.24202538 389.6453476 C-217.25169847 395.81438389 -217.25179089 401.98334685 -217.24450874 408.15238571 C-217.24346186 410.41670463 -217.24583192 412.68102809 -217.2518692 414.9453392 C-217.25957746 418.03662366 -217.25495185 421.12765418 -217.24723816 424.21893311 C-217.2549535 425.56267443 -217.2549535 425.56267443 -217.26282471 426.93356204 C-217.24599184 435.45389416 -217.24599184 435.45389416 -213.40625 442.78735352 C-212.7771875 443.20944092 -212.148125 443.63152832 -211.5 444.06640625 C-210.78328125 444.55383301 -210.0665625 445.04125977 -209.328125 445.54345703 C-205.26148552 448.08766541 -201.15788097 450.54515519 -197 452.9375 C-188.86880608 457.6762136 -180.83915495 462.54819865 -172.875 467.5625 C-165.52647975 472.18726947 -158.1489794 476.74713862 -150.6875 481.1875 C-143.31124119 485.57783278 -136.03405539 490.10413657 -128.79174805 494.71166992 C-123.48523222 498.08140426 -118.12904117 501.34918029 -112.72167969 504.55395508 C-106.57281794 508.21592544 -100.54117048 512.06084973 -94.51953125 515.92773438 C-91.39137713 517.92392086 -88.33535089 519.83472929 -85.00390625 521.4765625 C-81.58065341 523.21267252 -78.50719995 525.27336503 -75.33398438 527.42529297 C-71.68962238 529.88409369 -67.97057706 532.22126469 -64.25 534.5625 C-63.05129272 535.31708496 -63.05129272 535.31708496 -61.82836914 536.08691406 C-60.12135923 537.15995767 -58.41374281 538.23203696 -56.70556641 539.30322266 C-54.83976366 540.473348 -52.9749114 541.64498984 -51.11083984 542.81787109 C-48.22278108 544.63350983 -45.33072473 546.4426072 -42.4375 548.25 C-41.07189941 549.10960327 -41.07189941 549.10960327 -39.67871094 549.98657227 C-38.83469727 550.51178467 -37.99068359 551.03699707 -37.12109375 551.578125 C-36.3727124 552.04637695 -35.62433105 552.51462891 -34.85327148 552.99707031 C-33.05804894 554.15864782 -33.05804894 554.15864782 -31 554 C-31 451.04 -31 348.08 -31 242 C-34.06938363 241.67790301 -34.06938363 241.67790301 -36.07345581 243.74633789 C-36.86889801 244.56352295 -37.66434021 245.38070801 -38.48388672 246.22265625 C-39.38847626 247.14361084 -40.2930658 248.06456543 -41.22506714 249.01342773 C-41.94693018 249.75869217 -41.94693018 249.75869217 -42.68337631 250.51901245 C-44.18949087 252.07261245 -45.7055508 253.61582568 -47.22488403 255.15649414 C-51.54286437 259.53873961 -55.84241412 263.93886368 -60.13427734 268.34667969 C-62.75962927 271.04152773 -65.39704336 273.72408249 -68.04205704 276.39962769 C-69.04760795 277.42195862 -70.04831751 278.44907489 -71.04403305 279.48098755 C-72.43694948 280.92430754 -73.84679307 282.35123343 -75.25732422 283.77734375 C-76.0543576 284.59452881 -76.85139099 285.41171387 -77.6725769 286.25366211 C-80 288 -80 288 -82.64138794 288.37475586 C-86.14569119 287.81796308 -87.64465173 286.06877626 -90.1875 283.625 C-90.68145264 283.1511084 -91.17540527 282.6772168 -91.68432617 282.18896484 C-92.81056809 281.10192165 -93.93067059 280.00849618 -95.04589844 278.91015625 C-97.27985157 276.72644194 -99.55036818 274.5837586 -101.8203125 272.4375 C-103.48588085 270.83489687 -105.14994592 269.23072993 -106.8125 267.625 C-107.63194092 266.85236816 -108.45138184 266.07973633 -109.2956543 265.28369141 C-110.42741089 264.1726001 -110.42741089 264.1726001 -111.58203125 263.0390625 C-112.26499268 262.38115723 -112.9479541 261.72325195 -113.65161133 261.04541016 C-115 259 -115 259 -114.9230957 256.47924805 C-113.88464823 253.69018851 -112.79089471 252.34112669 -110.6484375 250.29296875 C-109.96136719 249.62330078 -109.27429688 248.95363281 -108.56640625 248.26367188 C-107.84324219 247.57853516 -107.12007813 246.89339844 -106.375 246.1875 C-101.58795822 241.58118447 -96.99864486 236.94186034 -92.67041016 231.8996582 C-90.08431245 228.95864297 -87.29981441 226.23561592 -84.5 223.5 C-80.39956998 219.45073088 -76.46850375 215.35369549 -72.73828125 210.95703125 C-69.78396679 207.63093789 -66.56981381 204.56294858 -63.40625 201.4375 C-61.34550655 199.34999365 -59.40484374 197.22830777 -57.5 195 C-54.80388859 191.84605835 -51.95183025 188.91626603 -49 186 C-46.13073759 183.16510001 -43.35513289 180.32879341 -40.75 177.25 C-36.80126619 172.62434039 -32.44472953 168.41926028 -28.12524414 164.14477539 C-24.46989868 160.51290866 -20.99303482 156.80464996 -17.6484375 152.8828125 C-15.60024649 150.54340949 -13.47585392 148.29586537 -11.3125 146.0625 C-10.22388672 144.93521484 -10.22388672 144.93521484 -9.11328125 143.78515625 C-5.8100209 140.9947866 -5.8100209 140.9947866 -3 141 C1.59083042 143.49234091 4.95162789 146.81295792 8.375 150.6875 C9.41557803 151.84082689 10.45730881 152.99311445 11.5 154.14453125 C12.056875 154.76150879 12.61375 155.37848633 13.1875 156.01416016 C17.19187512 160.4014968 21.30157594 164.69190682 25.39208984 168.9987793 C28.47917158 172.26382769 31.48284242 175.54832026 34.3515625 179.0078125 C35.22554687 179.99523437 36.09953125 180.98265625 37 182 C37.66 182 38.32 182 39 182 C39.31904297 182.81210937 39.31904297 182.81210937 39.64453125 183.640625 C41.49018936 186.85324026 44.03963247 189.20551116 46.6875 191.75 C50.74573622 195.72154492 54.61100005 199.74723363 58.29296875 204.07421875 C60.98978013 207.11661695 63.91534396 209.92325809 66.80859375 212.77734375 C69.41463272 215.42054549 71.82171082 218.19709208 74.234375 221.015625 C76.79255873 223.89075185 79.53734976 226.56171598 82.30078125 229.23828125 C84 231 84 231 86 234 C86.66 234 87.32 234 88 234 C88.26425781 234.59095459 88.52851562 235.18190918 88.80078125 235.79077148 C90.04346276 238.08006809 91.32451943 239.5403626 93.1875 241.34765625 C93.80367187 241.95287109 94.41984375 242.55808594 95.0546875 243.18164062 C96.01761719 244.11266602 96.01761719 244.11266602 97 245.0625 C98.27308578 246.30107442 99.54400932 247.54187616 100.8125 248.78515625 C101.37582031 249.33051025 101.93914062 249.87586426 102.51953125 250.43774414 C104 252 104 252 106 255 C105.875 258.5625 105.875 258.5625 105 262 C103.125 263.25 103.125 263.25 101 264 C99.2488427 265.4166747 99.2488427 265.4166747 98 267 C98 267.66 98 268.32 98 269 C97.360625 269.268125 96.72125 269.53625 96.0625 269.8125 C93.66868314 270.88667752 93.66868314 270.88667752 93 274 C91.67592331 274.68486725 90.34090759 275.34870203 89 276 C86.74934898 277.91666921 86.74934898 277.91666921 85 280 C85 280.66 85 281.32 85 282 C84.01 282.33 83.02 282.66 82 283 C82 283.66 82 284.32 82 285 C79.01079117 286.66067157 76.42941123 287.75025837 73 288 C70.65847778 286.45973206 70.65847778 286.45973206 68.28173828 284.15063477 C67.41019104 283.31629913 66.5386438 282.4819635 65.64068604 281.62234497 C64.33354645 280.32428421 64.33354645 280.32428421 63 279 C62.21187927 278.23364227 61.42375854 277.46728455 60.61175537 276.67770386 C58.21903607 274.33390329 55.85295034 271.96580947 53.4921875 269.58984375 C52.64069122 268.73693253 51.78919495 267.8840213 50.91189575 267.00526428 C48.23054337 264.31837771 45.55271567 261.62801038 42.875 258.9375 C41.04190009 257.09937656 39.20856878 255.26148386 37.375 253.42382812 C32.9139921 248.95187869 28.45586145 244.47707709 24 240 C21.78599621 241.79736298 21.78599621 241.79736298 21.75160301 244.24253809 C21.75236245 245.18652284 21.75312189 246.13050758 21.75390434 247.10309792 C21.74992225 248.19041604 21.74594015 249.27773416 21.74183738 250.39800131 C21.74766307 251.60226055 21.75348875 252.80651979 21.75949097 254.04727173 C21.75778212 255.31896536 21.75607327 256.590659 21.75431263 257.9008888 C21.7498236 261.4423047 21.75786399 264.98360047 21.76786876 268.52500105 C21.77647867 272.33958918 21.77358485 276.15417015 21.77206421 279.96876526 C21.77101379 286.5816573 21.7773067 293.19450998 21.78853989 299.80739212 C21.80477079 309.36858934 21.81000042 318.92976747 21.81251587 328.49097697 C21.81689677 344.00213347 21.83021655 359.51326897 21.84912109 375.02441406 C21.86746969 390.09505101 21.88163118 405.16568227 21.89013672 420.23632812 C21.89092489 421.62897339 21.89092489 421.62897339 21.89172898 423.04975291 C21.89433899 427.70725776 21.89686642 432.36476266 21.89935279 437.02226758 C21.92009757 475.68152642 21.95533382 514.34076183 22 553 C22.99 553.33 23.98 553.66 25 554 C27.69220627 552.5709179 30.19300891 551.08240631 32.75 549.4375 C34.38368803 548.41208052 36.01782428 547.3873749 37.65234375 546.36328125 C38.95534424 545.54077881 38.95534424 545.54077881 40.28466797 544.70166016 C44.92910864 541.79105492 49.62415683 538.9641182 54.3125 536.125 C64.37761393 530.00669457 74.40003444 523.82135461 84.40722656 517.60888672 C88.76916797 514.90218296 93.13476235 512.20138326 97.5 509.5 C102.69214245 506.28634317 107.88397782 503.07219595 113.07421875 499.85546875 C151.1933503 476.23460816 151.1933503 476.23460816 162.625 469.4375 C172.20878408 463.72027708 181.65253144 457.7729672 191.09570312 451.82714844 C193.08586555 450.57509938 195.07954386 449.32862653 197.07617188 448.08691406 C198.05650391 447.47299805 199.03683594 446.85908203 200.046875 446.2265625 C200.92698242 445.67822754 201.80708984 445.12989258 202.71386719 444.56494141 C206.43474649 442.01786363 208.11634683 440.4485733 209 436 C209.08830457 434.60986331 209.12899999 433.21618813 209.13142776 431.82325172 C209.13526891 430.99342297 209.13911005 430.16359422 209.1430676 429.30861914 C209.14176787 427.94900315 209.14176787 427.94900315 209.14044189 426.56192017 C209.14341302 425.59493395 209.14638414 424.62794774 209.1494453 423.63165891 C209.15813533 420.38284853 209.1596408 417.13407499 209.16113281 413.88525391 C209.1657607 411.55945253 209.17078532 409.23365191 209.17617798 406.90785217 C209.18930524 400.58350799 209.19574738 394.25917442 209.20018864 387.93481874 C209.20311834 383.98553989 209.20722292 380.03626394 209.21169281 376.08698654 C209.22380068 365.15114537 209.2341835 354.21530674 209.2375679 343.279459 C209.23778747 342.57978499 209.23800703 341.88011098 209.23823325 341.15923472 C209.23845153 340.45789721 209.23866981 339.75655969 209.2388947 339.03396952 C209.23933817 337.61281562 209.23978473 336.19166171 209.24023438 334.77050781 C209.2404558 334.06556798 209.24067723 333.36062815 209.24090537 332.6343265 C209.24485432 321.20901923 209.26231234 309.78377569 209.2855939 298.35849304 C209.30930733 286.62654615 209.32176972 274.89463125 209.32293582 263.16266 C209.32398519 256.57625361 209.32992142 249.98993717 209.34775543 243.40355301 C209.36420002 237.20985893 209.36640914 231.01632276 209.35761642 224.82261467 C209.35684416 222.54819631 209.36121357 220.27376959 209.37107468 217.99937248 C209.38373897 214.89674128 209.37794719 211.79467406 209.36749268 208.69204712 C209.37554908 207.7900979 209.38360548 206.88814868 209.39190602 205.95886767 C209.3518764 200.88644052 208.81921657 197.39349464 206 193 C203.71463073 190.80495512 203.71463073 190.80495512 201 189 C200.13375 188.38125 199.2675 187.7625 198.375 187.125 C195.59507217 185.37467507 192.81911757 183.79346371 189.9296875 182.23828125 C184.11579409 179.10583784 178.48759776 175.71064523 172.86181641 172.2539978 C162.31214696 165.77593873 151.69185682 159.42779115 141 153.1875 C130.42078043 147.01074117 119.88370585 140.77016874 109.39453125 134.44140625 C106.83926201 132.90324255 104.27952079 131.37273577 101.71875 129.84375 C87.14011134 121.13379 87.14011134 121.13379 80.9375 117.125 C77.70595463 115.03865827 74.44328837 113.1166724 71.05078125 111.3046875 C64.36437778 107.68295546 57.80468488 103.85279436 51.25 100 C50.30889877 99.44807983 50.30889877 99.44807983 49.3487854 98.88500977 C39.79730775 93.28206375 30.32071927 87.56574473 20.87939453 81.77880859 C15.18105658 78.29677519 9.44445786 74.90088443 3.625 71.625 C2.95815186 71.24923828 2.29130371 70.87347656 1.60424805 70.48632812 C-7.48098688 65.43232252 -17.47706655 74.79760747 -25.484375 79.81640625 Z " fill="#00C1FE" transform="translate(516,174)"/>
<path d="M0 0 C2.75977831 1.08718539 3.54476521 2.27415083 5.0625 4.8125 C5.37857056 7.53961182 5.37857056 7.53961182 5.29541016 10.70410156 C5.27193512 11.89344299 5.24846008 13.08278442 5.22427368 14.3081665 C5.18377899 15.59350281 5.1432843 16.87883911 5.1015625 18.203125 C5.07092471 19.54909925 5.04184791 20.89510985 5.01425171 22.2411499 C4.93813412 25.79297063 4.84479582 29.34411317 4.74664307 32.89538574 C4.57442402 39.20581844 4.42891402 45.51690347 4.2890625 51.828125 C4.27350122 52.50408722 4.25793995 53.18004944 4.24190712 53.87649536 C4.05133606 62.39633552 4.14757173 70.72843456 4.84472656 79.22167969 C5.24130501 85.76077819 4.93811725 92.29043027 4.71014404 98.83273315 C4.5612058 103.17046599 4.44153574 107.50896796 4.32421875 111.84765625 C4.30002869 112.74206924 4.27583862 113.63648224 4.25091553 114.55799866 C3.99389477 124.62155313 3.94394261 134.68359197 3.9375 144.75 C3.93509308 145.59884766 3.93268616 146.44769531 3.9302063 147.32226562 C3.7954302 157.4712396 3.7954302 157.4712396 4.6328125 167.56640625 C5.14832482 171.20199952 4.90966893 174.58455141 4.59645081 178.23843384 C4.06038804 185.25500553 3.92709553 192.20934481 3.94897461 199.24365234 C3.94882858 200.50390732 3.94868256 201.76416229 3.9485321 203.06260681 C3.94824899 206.46870877 3.95406597 209.87477442 3.96110606 213.28086805 C3.96742163 216.85892514 3.96794981 220.43698336 3.96913147 224.01504517 C3.97222087 230.76841178 3.98040152 237.52176192 3.99048096 244.27512133 C4.001717 251.97299977 4.0071713 259.67087906 4.01217639 267.36876369 C4.02258654 283.18335195 4.04013894 298.99792384 4.0625 314.8125 C3.4025 314.8125 2.7425 314.8125 2.0625 314.8125 C1.91155438 297.31254196 1.76644981 279.81253722 1.625 262.3125 C1.61672865 261.29024826 1.61672865 261.29024826 1.6082902 260.24734497 C1.14098513 202.43627214 0.80684117 144.62462382 0.5 86.8125 C0.49167578 85.24520708 0.49167578 85.24520708 0.48318338 83.64625168 C0.34013128 56.70168232 0.19983384 29.7570991 0.0625 2.8125 C-3.78488489 6.06283497 -7.57088653 9.3200505 -11.12866211 12.89013672 C-12.23902077 14.00060867 -12.23902077 14.00060867 -13.37181091 15.1335144 C-14.14501175 15.91187653 -14.91821259 16.69023865 -15.71484375 17.4921875 C-16.93186729 18.71133347 -16.93186729 18.71133347 -18.17347717 19.95510864 C-20.7430259 22.53021738 -23.30905968 25.1087962 -25.875 27.6875 C-27.62541929 29.44293946 -29.376068 31.19815017 -31.12695312 32.953125 C-35.39979302 37.23694082 -39.66975899 41.52360472 -43.9375 45.8125 C-44.9375 43.8125 -44.9375 43.8125 -44.875 41.8125 C-44.565625 41.1525 -44.25625 40.4925 -43.9375 39.8125 C-42.968125 39.503125 -41.99875 39.19375 -41 38.875 C-39.989375 38.524375 -38.97875 38.17375 -37.9375 37.8125 C-36.81664688 35.4694191 -36.81664688 35.4694191 -35.9375 32.8125 C-33.51624272 30.12948518 -31.01490344 27.87407092 -28.1875 25.625 C-25.86262612 24.00940923 -25.86262612 24.00940923 -24.9375 21.8125 C-24.2775 21.8125 -23.6175 21.8125 -22.9375 21.8125 C-22.855 21.214375 -22.7725 20.61625 -22.6875 20 C-21.72173221 17.18317727 -20.44881433 16.33450868 -17.9375 14.8125 C-17.2775 14.8125 -16.6175 14.8125 -15.9375 14.8125 C-15.710625 14.255625 -15.48375 13.69875 -15.25 13.125 C-12.98149551 9.12811114 -10.31850054 6.27283351 -5.9375 4.8125 C-5.9375 4.1525 -5.9375 3.4925 -5.9375 2.8125 C-5.2775 2.8125 -4.6175 2.8125 -3.9375 2.8125 C-3.9375 2.1525 -3.9375 1.4925 -3.9375 0.8125 C-1.9375 -0.1875 -1.9375 -0.1875 0 0 Z " fill="#03D9FC" transform="translate(483.9375,413.1875)"/>
<path d="M0 0 C0.66 0.33 1.32 0.66 2 1 C-3.14285714 5.42857143 -3.14285714 5.42857143 -7 6 C-7 6.66 -7 7.32 -7 8 C-7.99 8 -8.98 8 -10 8 C-10.268125 8.804375 -10.53625 9.60875 -10.8125 10.4375 C-11.204375 11.283125 -11.59625 12.12875 -12 13 C-12.99 13.33 -13.98 13.66 -15 14 C-16.32301418 20.01946384 -16.13572727 26.02030996 -16.12025452 32.14865112 C-16.12110894 33.38292693 -16.12196337 34.61720274 -16.12284368 35.88888085 C-16.1242047 39.3072199 -16.12108435 42.72550154 -16.11606562 46.14383364 C-16.11174349 49.83292418 -16.1132088 53.52201298 -16.1139679 57.21110535 C-16.11449201 63.6001922 -16.11135692 69.98926884 -16.10573006 76.37835312 C-16.09759987 85.61587377 -16.09499828 94.85338947 -16.09374207 104.09091331 C-16.09155394 119.07851532 -16.08490032 134.06611188 -16.07543945 149.05371094 C-16.06625916 163.61197889 -16.05918134 178.17024536 -16.05493164 192.72851562 C-16.05466892 193.62602495 -16.05440619 194.52353428 -16.05413551 195.44824086 C-16.05283046 199.95082249 -16.05156676 204.45340414 -16.05032361 208.95598578 C-16.03995844 246.30399437 -16.02234661 283.65199676 -16 321 C-16.99 321 -17.98 321 -19 321 C-19.32048742 281.78871462 -19.56715593 242.57760003 -19.71491461 203.36526645 C-19.73242438 198.73528942 -19.7505449 194.10531497 -19.76904297 189.4753418 C-19.77271531 188.55360263 -19.77638766 187.63186346 -19.78017129 186.68219279 C-19.84108029 171.75989533 -19.95145742 156.83835342 -20.08013915 141.91650409 C-20.21109028 126.60370975 -20.28882859 111.2913109 -20.31723893 95.9779796 C-20.336444 86.52930777 -20.39707717 77.08277134 -20.51083054 67.63475697 C-20.58487353 61.1546168 -20.60719441 54.67557932 -20.58901928 48.19504691 C-20.58005486 44.45585108 -20.59371705 40.72038292 -20.66887665 36.98185158 C-21.0868914 15.13109122 -21.0868914 15.13109122 -17.63028955 9.94493937 C-13.93343321 6.32723742 -9.81624687 4.69308174 -5 3 C-4.06747847 2.42557694 -3.13495693 1.85115389 -2.17417717 1.25932407 C-1.4566987 0.84374713 -0.73922024 0.42817019 0 0 Z " fill="#01DFFC" transform="translate(259,323)"/>
<path d="M0 0 C3.75105436 5.62658155 3.14368186 12.85726566 3.09765625 19.44458008 C3.09619598 20.247379 3.09473572 21.05017792 3.0932312 21.87730408 C3.08944924 23.60690243 3.08335847 25.33649701 3.07516479 27.06608009 C3.06229752 29.8127533 3.05585884 32.55937766 3.05102539 35.30607605 C3.037717 42.12800624 3.01354323 48.94988981 2.98962402 55.77178955 C2.969798 61.54271377 2.95419595 67.31362032 2.94406128 73.08456993 C2.93763934 75.77368249 2.9251313 78.46272098 2.91235352 81.15180969 C2.89046944 88.81659106 2.90801568 96.35513773 3.88110352 103.97465515 C4 106 4 106 3 109 C2.9214432 110.88062935 2.90452302 112.76403387 2.91992188 114.64624023 C2.92576294 115.85055191 2.931604 117.05486359 2.93762207 118.29566956 C2.94278336 118.95368624 2.94794464 119.61170292 2.95326233 120.2896595 C2.98088159 124.00149478 2.98838418 127.71337075 2.99609375 131.42529297 C2.99795937 132.24834584 2.99982498 133.07139872 3.00174713 133.91939259 C3.01741423 145.12520807 2.89443871 156.33004459 2.78125 167.53515625 C2.77017212 168.64960491 2.75909424 169.76405357 2.74768066 170.91227341 C2.6791513 177.7912874 2.6082109 184.67027455 2.53643799 191.54925537 C2.47488519 197.48399634 2.41527065 203.4187568 2.35546875 209.35351562 C2.23882268 220.90236304 2.12011154 232.45118814 2 244 C1.34 244.33 0.68 244.66 0 245 C0 164.15 0 83.3 0 0 Z " fill="#03D8FC" transform="translate(725,369)"/>
<path d="M0 0 C-4.76909232 4.03035057 -9.97069448 7.15002467 -15.29296875 10.37695312 C-15.98261719 10.80041016 -16.67226563 11.22386719 -17.3828125 11.66015625 C-18.00559082 12.03793213 -18.62836914 12.41570801 -19.27001953 12.80493164 C-22.35373867 14.93516099 -23.7983663 16.3950989 -25 20 C-25.66 20 -26.32 20 -27 20 C-27 98.54 -27 177.08 -27 258 C-27.33 258 -27.66 258 -28 258 C-29.28509088 197.15591705 -30.36359221 136.30009776 -30.14596558 75.44024658 C-30.12803707 70.23202699 -30.12869735 65.02432284 -30.14529419 59.81610107 C-30.16339522 53.69131577 -30.14241732 47.5679297 -30.09014702 41.44335175 C-30.07707501 39.19974249 -30.07733259 36.95601017 -30.09187508 34.71240997 C-30.1090276 31.65514978 -30.07682285 28.60229494 -30.03173828 25.54541016 C-30.04801301 24.65812918 -30.06428774 23.7708482 -30.08105564 22.85667992 C-29.97938169 19.11170297 -29.87804145 16.89557832 -27.18554306 14.14930344 C-24.99801636 12.52841187 -24.99801636 12.52841187 -22.8113842 11.17223167 C-20.84794129 10.11915887 -20.84794129 10.11915887 -20 8 C-17.93359375 7.1484375 -17.93359375 7.1484375 -15.4375 6.375 C-14.61121094 6.11460937 -13.78492188 5.85421875 -12.93359375 5.5859375 C-12.29550781 5.39257812 -11.65742188 5.19921875 -11 5 C-10.67 3.35 -10.34 1.7 -10 0 C-3.375 -1.125 -3.375 -1.125 0 0 Z " fill="#02E1FE" transform="translate(325,352)"/>
<path d="M0 0 C0.804375 0.37125 0.804375 0.37125 1.625 0.75 C-4.86590909 5.45909091 -4.86590909 5.45909091 -8 7.25 C-10.54909005 8.71757837 -10.54909005 8.71757837 -12.75 11.3125 C-15.375 13.75 -15.375 13.75 -18.8125 14.625 C-23.06596581 15.96819973 -24.2247045 17.58346208 -26.625 21.19140625 C-28.375 22.75 -28.375 22.75 -31.703125 23.19140625 C-36.08146864 23.85747342 -37.82017685 25.24028149 -41.125 28.125 C-42.04796875 28.91648437 -42.9709375 29.70796875 -43.921875 30.5234375 C-46.30139055 32.61495867 -46.30139055 32.61495867 -48.015625 34.5390625 C-49.375 35.75 -49.375 35.75 -52.375 35.75 C-52.375 36.41 -52.375 37.07 -52.375 37.75 C-52.92929687 37.51667969 -53.48359375 37.28335938 -54.0546875 37.04296875 C-57.45384166 36.61378262 -58.8019307 38.05304242 -61.5 40.0625 C-62.36882812 40.69800781 -63.23765625 41.33351563 -64.1328125 41.98828125 C-66.40962141 43.70519126 -66.40962141 43.70519126 -68.375 45.75 C-70.90589418 46.84444073 -73.44050641 47.77132767 -76.0625 48.625 C-78.7772379 49.9456833 -79.35453925 50.96692523 -80.375 53.75 C-82.355 53.75 -84.335 53.75 -86.375 53.75 C-86.375 54.41 -86.375 55.07 -86.375 55.75 C-90.05019998 59.74294062 -93.09376149 61.71951444 -98.375 62.75 C-100.43919744 64.13927938 -102.36938718 65.65648087 -104.32421875 67.1953125 C-107.19686535 69.37305221 -110.21300611 71.0198524 -113.375 72.75 C-116.06662845 74.30516311 -118.17862897 75.55362897 -120.375 77.75 C-121.4475 78.183125 -122.52 78.61625 -123.625 79.0625 C-126.46136646 80.21697147 -127.9203934 81.2044945 -130.375 83.25 C-133.60059043 85.93799202 -136.51155958 87.151335 -140.375 88.75 C-142.51360782 90.06964911 -144.60139932 91.44113352 -146.67578125 92.859375 C-147.23652344 93.15328125 -147.79726563 93.4471875 -148.375 93.75 C-149.035 93.42 -149.695 93.09 -150.375 92.75 C-147.57856976 89.77346894 -144.77184693 87.56422406 -141.3046875 85.4140625 C-140.33241211 84.80852539 -139.36013672 84.20298828 -138.35839844 83.57910156 C-136.88161621 82.67369629 -136.88161621 82.67369629 -135.375 81.75 C-134.48071289 81.20053711 -133.58642578 80.65107422 -132.66503906 80.08496094 C-129.94778049 78.42424759 -127.22466134 76.77353659 -124.5 75.125 C-114.28683077 68.92657699 -104.11780532 62.66002958 -93.96777344 56.35888672 C-89.60583203 53.65218296 -85.24023765 50.95138326 -80.875 48.25 C-75.68285755 45.03634317 -70.49102218 41.82219595 -65.30078125 38.60546875 C-25.49914307 13.94202789 -25.49914307 13.94202789 -11.328125 5.546875 C-8.28605125 3.75302108 -8.28605125 3.75302108 -5.234375 1.453125 C-2.375 -0.25 -2.375 -0.25 0 0 Z " fill="#00D2FD" transform="translate(694.375,634.25)"/>
<path d="M0 0 C1.98 0.66 3.96 1.32 6 2 C5.51308496 2.41287168 5.02616993 2.82574335 4.52449989 3.25112629 C2.68850828 5.35733664 2.62097463 6.23008635 2.60800171 8.98197937 C2.59691092 9.79678268 2.58582014 10.611586 2.57439327 11.45108032 C2.5773972 12.34853973 2.58040113 13.24599915 2.58349609 14.1706543 C2.57489091 15.12779831 2.56628572 16.08494232 2.55741978 17.0710907 C2.53188577 20.3222067 2.52785301 23.57301012 2.5234375 26.82421875 C2.50930604 29.18741139 2.49385075 31.55059643 2.47718811 33.91377258 C2.44369698 39.08825391 2.41949734 44.26269508 2.40328979 49.43725586 C2.37936017 57.05191628 2.33868787 64.66641714 2.29401958 72.28098083 C2.22210375 84.60674053 2.16166413 96.93252912 2.10809338 109.25838113 C2.00662061 132.59498407 1.87509816 155.93138757 1.74095917 179.2678225 C1.68636942 188.77986399 1.6324466 198.29190929 1.57861328 207.80395508 C1.57271069 208.84620707 1.5668081 209.88845907 1.56072664 210.96229446 C1.42821424 234.39149408 1.30465146 257.8207387 1.18359375 281.25 C1.1788187 282.17387961 1.17404364 283.09775921 1.16912389 284.04963517 C1.11238181 295.03308824 1.05598155 306.01654303 1 317 C0.67 317 0.34 317 0 317 C0 212.39 0 107.78 0 0 Z " fill="#02E7FE" transform="translate(536,411)"/>
<path d="M0 0 C2.75977831 1.08718539 3.54476521 2.27415083 5.0625 4.8125 C5.37857056 7.53961182 5.37857056 7.53961182 5.29541016 10.70410156 C5.27193512 11.89344299 5.24846008 13.08278442 5.22427368 14.3081665 C5.18377899 15.59350281 5.1432843 16.87883911 5.1015625 18.203125 C5.07092471 19.54909925 5.04184791 20.89510985 5.01425171 22.2411499 C4.93813412 25.79297063 4.84479582 29.34411317 4.74664307 32.89538574 C4.57442403 39.20581821 4.42888117 45.51690291 4.2890625 51.828125 C4.27350122 52.50466881 4.25793995 53.18121262 4.24190712 53.87825775 C4.05243436 62.35770805 4.14826622 70.64624196 4.84472656 79.09863281 C5.31261034 87.07783462 4.88686094 95.07984467 4.625 103.0625 C4.51937533 106.52596197 4.41771459 109.98953446 4.31640625 113.453125 C4.29144073 114.27758118 4.26647522 115.10203735 4.24075317 115.95147705 C4.08197988 121.39743546 4.04385446 126.83382694 4.07397461 132.28222656 C4.05686855 136.0542952 3.83324625 139.8013223 3.5625 143.5625 C3.51480469 144.27148438 3.46710938 144.98046875 3.41796875 145.7109375 C3.30305213 147.41170352 3.18333745 149.11214439 3.0625 150.8125 C2.7325 150.8125 2.4025 150.8125 2.0625 150.8125 C2.05826806 150.09835182 2.05403612 149.38420364 2.04967594 148.64841461 C1.94627346 131.25417224 1.83762155 113.85997055 1.72316074 96.46579742 C1.66793386 88.05403498 1.61446949 79.64226829 1.56518555 71.23046875 C1.52221432 63.89689431 1.4759043 56.56334977 1.42562145 49.22982168 C1.3991244 45.34848076 1.37427457 41.46714537 1.35342598 37.58576965 C1.33372742 33.92833187 1.30954579 30.27095044 1.28200912 26.61356354 C1.26829216 24.63987648 1.25925382 22.66615863 1.25038147 20.69244385 C1.20057808 14.64317608 0.99041495 8.79333287 0.0625 2.8125 C-5.49189924 7.43741379 -10.62275669 12.36610964 -15.71484375 17.4921875 C-16.93186729 18.71133347 -16.93186729 18.71133347 -18.17347717 19.95510864 C-20.7430259 22.53021738 -23.30905968 25.1087962 -25.875 27.6875 C-27.62541929 29.44293946 -29.376068 31.19815017 -31.12695312 32.953125 C-35.39979302 37.23694082 -39.66975899 41.52360472 -43.9375 45.8125 C-44.9375 43.8125 -44.9375 43.8125 -44.875 41.8125 C-44.565625 41.1525 -44.25625 40.4925 -43.9375 39.8125 C-42.968125 39.503125 -41.99875 39.19375 -41 38.875 C-39.989375 38.524375 -38.97875 38.17375 -37.9375 37.8125 C-36.81664688 35.4694191 -36.81664688 35.4694191 -35.9375 32.8125 C-33.51624272 30.12948518 -31.01490344 27.87407092 -28.1875 25.625 C-25.86262612 24.00940923 -25.86262612 24.00940923 -24.9375 21.8125 C-24.2775 21.8125 -23.6175 21.8125 -22.9375 21.8125 C-22.855 21.214375 -22.7725 20.61625 -22.6875 20 C-21.72173221 17.18317727 -20.44881433 16.33450868 -17.9375 14.8125 C-17.2775 14.8125 -16.6175 14.8125 -15.9375 14.8125 C-15.710625 14.255625 -15.48375 13.69875 -15.25 13.125 C-12.98149551 9.12811114 -10.31850054 6.27283351 -5.9375 4.8125 C-5.9375 4.1525 -5.9375 3.4925 -5.9375 2.8125 C-5.2775 2.8125 -4.6175 2.8125 -3.9375 2.8125 C-3.9375 2.1525 -3.9375 1.4925 -3.9375 0.8125 C-1.9375 -0.1875 -1.9375 -0.1875 0 0 Z " fill="#02F0FE" transform="translate(483.9375,413.1875)"/>
<path d="M0 0 C4.59600646 -0.45876652 6.81966486 0.85031076 10.5625 3.4375 C14.95568968 6.47903798 14.95568968 6.47903798 20 8 C19.67 8.33 19.34 8.66 19 9 C19.57443848 9.34256836 20.14887695 9.68513672 20.74072266 10.03808594 C23.36976365 11.60714083 25.99738984 13.17855025 28.625 14.75 C29.52863281 15.28882813 30.43226563 15.82765625 31.36328125 16.3828125 C33.91587368 17.91064154 36.46031588 19.45082413 39 21 C39.96631348 21.58297852 39.96631348 21.58297852 40.95214844 22.17773438 C44.88122795 24.64368386 44.88122795 24.64368386 46 28 C41.58657012 26.42497827 37.72184317 24.13286804 33.75 21.6875 C29.60489896 19.1614302 25.46929831 16.66526421 21.1875 14.375 C17.90138494 12.59270031 14.90923493 10.55855737 11.875 8.375 C8.02741452 5.61555979 4.43378503 3.63857273 0 2 C0 1.34 0 0.68 0 0 Z " fill="#00D2FD" transform="translate(417,689)"/>
<path d="M0 0 C3.3 0 6.6 0 10 0 C10.2475 1.4025 10.495 2.805 10.75 4.25 C11.63014644 8.31270493 12.75125253 10.29271044 16 13 C16 13.66 16 14.32 16 15 C18.475 15.495 18.475 15.495 21 16 C21.33 16.99 21.66 17.98 22 19 C24.5402881 22.05389084 24.5402881 22.05389084 28.125 23.4375 C30 24 30 24 31.3125 26.375 C32 29 32 29 31 32 C26.58165052 27.60691362 22.16715378 23.20998376 17.75537109 18.81030273 C16.25268527 17.31265948 14.74910507 15.81591309 13.24462891 14.32006836 C11.08783449 12.17534291 8.93423049 10.0274594 6.78125 7.87890625 C6.10316284 7.20598038 5.42507568 6.5330545 4.72644043 5.83973694 C3.79547546 4.90888527 3.79547546 4.90888527 2.84570312 3.95922852 C2.29499146 3.41073746 1.74427979 2.8622464 1.17687988 2.2971344 C0 1 0 1 0 0 Z " fill="#01EBFE" transform="translate(542,416)"/>
<path d="M0 0 C5.93417564 1.09424515 10.92096345 4.91847423 16 8 C17.58167969 8.94746094 17.58167969 8.94746094 19.1953125 9.9140625 C20.18273437 10.51992188 21.17015625 11.12578125 22.1875 11.75 C23.08855469 12.30171875 23.98960937 12.8534375 24.91796875 13.421875 C27 15 27 15 28 18 C22.25 18.125 22.25 18.125 20 17 C19.34 16.01 18.68 15.02 18 14 C15.92192506 12.88360646 15.92192506 12.88360646 13.5625 12 C10.40673336 10.75225042 8.16117627 9.66846202 6 7 C6 6.34 6 5.68 6 5 C5.195625 4.731875 4.39125 4.46375 3.5625 4.1875 C2.716875 3.795625 1.87125 3.40375 1 3 C0.67 2.01 0.34 1.02 0 0 Z " fill="#00D1FD" transform="translate(388,670)"/>
<path d="M0 0 C1.32 0 2.64 0 4 0 C4 0.99 4 1.98 4 3 C5.051875 3.2475 6.10375 3.495 7.1875 3.75 C10.88850775 4.62082535 13.07294229 6.62602006 16 9 C18.85128457 10.77160706 21.72030884 12.49112854 24.62304688 14.17578125 C26.11419804 15.06535943 27.56178855 16.02715419 29 17 C29 17.66 29 18.32 29 19 C30.32 19.66 31.64 20.32 33 21 C29.19576627 21 27.5120457 19.77045755 24.23046875 17.859375 C23.09416016 17.20066406 21.95785156 16.54195313 20.78710938 15.86328125 C20.19567139 15.51604004 19.6042334 15.16879883 18.99487305 14.81103516 C17.2079818 13.76202403 15.41613472 12.7219701 13.62304688 11.68359375 C8.30959614 8.58983781 3.08999534 5.44688077 -2 2 C-1.34 1.34 -0.68 0.68 0 0 Z " fill="#01F1FE" transform="translate(612,298)"/>
<path d="M0 0 C0.70125 0.309375 1.4025 0.61875 2.125 0.9375 C5.08936657 2.03302678 7.87698108 2.56422992 11 3 C11.66 5.64 12.32 8.28 13 11 C14.98 11 16.96 11 19 11 C19.268125 12.051875 19.53625 13.10375 19.8125 14.1875 C20.8676829 17.57519246 22.04726378 20.07089567 24 23 C20.3468423 21.46213169 18.016051 19.26051042 15.234375 16.46484375 C14.34492188 15.57345703 13.45546875 14.68207031 12.5390625 13.76367188 C11.15847656 12.3647168 11.15847656 12.3647168 9.75 10.9375 C8.8050908 9.99113361 7.85978238 9.04516564 6.9140625 8.09960938 C0 1.14019224 0 1.14019224 0 0 Z " fill="#02F0FE" transform="translate(405,437)"/>
<path d="M0 0 C2.35171131 0.59861742 4.6859378 1.26924352 7 2 C7.33 2.66 7.66 3.32 8 4 C10.16513298 5.32328745 10.16513298 5.32328745 12.75 6.5625 C13.61109375 6.99691406 14.4721875 7.43132812 15.359375 7.87890625 C17.92264256 8.96715742 20.25814729 9.56110631 23 10 C23.33 11.98 23.66 13.96 24 16 C24.99 16.33 25.98 16.66 27 17 C26.67 17.66 26.34 18.32 26 19 C19.9590921 15.18350118 13.93993803 11.34337097 8.015625 7.34765625 C6.72462625 6.48448848 5.42323739 5.63654423 4.109375 4.80859375 C2.70759041 3.92101519 1.34777109 2.96763053 0 2 C0 1.34 0 0.68 0 0 Z " fill="#01EAFE" transform="translate(698,350)"/>
<path d="M0 0 C0.66 0.33 1.32 0.66 2 1 C-0.35690769 4.24074808 -2.90060202 6.85412743 -5.9375 9.4375 C-8.42572894 11.55710243 -10.64860862 13.63243358 -12.6875 16.1875 C-14.91958015 18.90219208 -17.18785863 20.9109807 -20 23 C-20.33 22.34 -20.66 21.68 -21 21 C-20.34 21 -19.68 21 -19 21 C-18.87625 20.401875 -18.7525 19.80375 -18.625 19.1875 C-18 17 -18 17 -16 14 C-15.34 14 -14.68 14 -14 14 C-13.67 13.01 -13.34 12.02 -13 11 C-11.5603559 9.75667101 -10.11526491 8.5181188 -8.625 7.3359375 C-6.7472199 5.83628636 -6.7472199 5.83628636 -4.25 3.25 C-2 1 -2 1 0 0 Z " fill="#02EFFD" transform="translate(616,437)"/>
<path d="M0 0 C2.625 0.375 2.625 0.375 5 1 C5 1.99 5 2.98 5 4 C5.99 4 6.98 4 8 4 C8 4.66 8 5.32 8 6 C12.455 6.99 12.455 6.99 17 8 C17 8.99 17 9.98 17 11 C17.969375 11.268125 18.93875 11.53625 19.9375 11.8125 C20.948125 12.204375 21.95875 12.59625 23 13 C23.33 13.99 23.66 14.98 24 16 C20.47542993 15.33464749 17.86226639 13.89426417 14.796875 12.05859375 C13.8171875 11.47529297 12.8375 10.89199219 11.828125 10.29101562 C10.81234375 9.67935547 9.7965625 9.06769531 8.75 8.4375 C7.71875 7.82197266 6.6875 7.20644531 5.625 6.57226562 C3.08058818 5.05268634 0.53908474 3.52845803 -2 2 C-1.34 1.34 -0.68 0.68 0 0 Z " fill="#01F0FE" transform="translate(647,319)"/>
<path d="M0 0 C0.33 0.66 0.66 1.32 1 2 C3.62616876 3.17486497 6.27044585 4.09014862 9 5 C11.6875 7.4375 11.6875 7.4375 14 10 C14 10.66 14 11.32 14 12 C10.30123909 10.62712658 7.0485524 8.93644547 3.6875 6.875 C2.80449219 6.33617187 1.92148437 5.79734375 1.01171875 5.2421875 C0.34785156 4.83226562 -0.31601562 4.42234375 -1 4 C-0.67 2.68 -0.34 1.36 0 0 Z " fill="#01EFFE" transform="translate(683,339)"/>
<path d="M0 0 C0.8971875 0.5259375 0.8971875 0.5259375 1.8125 1.0625 C-0.64268735 2.56787035 -3.1013452 4.06694426 -5.5625 5.5625 C-6.26117188 5.99175781 -6.95984375 6.42101562 -7.6796875 6.86328125 C-12.9609375 10.0625 -12.9609375 10.0625 -15.1875 10.0625 C-13.736546 6.23725764 -11.80568068 4.87159034 -8.1875 3.0625 C-7.5275 3.0625 -6.8675 3.0625 -6.1875 3.0625 C-5.8575 2.0725 -5.5275 1.0825 -5.1875 0.0625 C-2.1875 -0.9375 -2.1875 -0.9375 0 0 Z " fill="#01F1FE" transform="translate(377.1875,319.9375)"/>
<path d="M0 0 C0.55171875 0.23203125 1.1034375 0.4640625 1.671875 0.703125 C-2.00229028 4.7113053 -5.47159004 7.22904115 -10.328125 9.703125 C-10.988125 9.703125 -11.648125 9.703125 -12.328125 9.703125 C-12.328125 8.713125 -12.328125 7.723125 -12.328125 6.703125 C-10.28125 4.84375 -10.28125 4.84375 -7.578125 2.953125 C-6.69640625 2.31890625 -5.8146875 1.6846875 -4.90625 1.03125 C-2.328125 -0.296875 -2.328125 -0.296875 0 0 Z " fill="#01F0FE" transform="translate(337.328125,342.296875)"/>
<path d="M0 0 C0.33 0.99 0.66 1.98 1 3 C3.10584438 3.80563638 3.10584438 3.80563638 5.5625 4.1875 C6.38878906 4.34605469 7.21507812 4.50460938 8.06640625 4.66796875 C8.70449219 4.77753906 9.34257813 4.88710937 10 5 C10.33 6.32 10.66 7.64 11 9 C8.11203455 7.86231664 5.38709644 6.68219815 2.625 5.25 C-1.9635247 3.6677501 -3.5853455 4.28819519 -8 6 C-7.375 4.125 -7.375 4.125 -6 2 C-2.875 0.75 -2.875 0.75 0 0 Z " fill="#01EFFE" transform="translate(513,239)"/>
<path d="M0 0 C-2.45518735 1.50537035 -4.9138452 3.00444426 -7.375 4.5 C-8.07367188 4.92925781 -8.77234375 5.35851562 -9.4921875 5.80078125 C-14.7734375 9 -14.7734375 9 -17 9 C-15.60802671 5.61743279 -14.1974504 4.16311318 -11.0625 2.3125 C-10.37285156 1.89613281 -9.68320312 1.47976563 -8.97265625 1.05078125 C-5.54715906 -0.77388953 -3.65596062 -1.13460847 0 0 Z " fill="#01EFFE" transform="translate(362,331)"/>
<path d="M0 0 C3.90037529 1.3001251 5.07500029 3.24377072 7.625 6.4375 C8.42164063 7.42621094 9.21828125 8.41492188 10.0390625 9.43359375 C12 12 12 12 13 14 C9.09714233 12.41332422 6.66479018 9.86649519 3.75 6.875 C2.85796875 5.96492188 1.9659375 5.05484375 1.046875 4.1171875 C0.37140625 3.41851562 -0.3040625 2.71984375 -1 2 C-0.67 1.34 -0.34 0.68 0 0 Z " fill="#02EDFE" transform="translate(575,447)"/>
<path d="M0 0 C3.58457283 -0.42171445 5.02895505 0.01614801 8.25 1.8125 C11 4 11 4 12 7 C3.64989059 4.6892779 3.64989059 4.6892779 0.9375 1.8125 C0.628125 1.214375 0.31875 0.61625 0 0 Z " fill="#00D2FE" transform="translate(470,722)"/>
<path d="M0 0 C3.0831351 1.19899698 6.06279492 2.47700477 9 4 C8.67 4.99 8.34 5.98 8 7 C7.34 6.67 6.68 6.34 6 6 C5.67 6.66 5.34 7.32 5 8 C4.34 8 3.68 8 3 8 C2.01 5.36 1.02 2.72 0 0 Z " fill="#02ECFC" transform="translate(765,324)"/>
<path d="M0 0 C3.465 1.98 3.465 1.98 7 4 C7 4.66 7 5.32 7 6 C7.99 6 8.98 6 10 6 C10 6.66 10 7.32 10 8 C5.38486888 6.68139111 1.90102388 4.78644563 -2 2 C-1.34 1.34 -0.68 0.68 0 0 Z " fill="#02EEFE" transform="translate(558,266)"/>
<path d="M0 0 C6.64615385 2.46153846 6.64615385 2.46153846 8.4375 5.1875 C8.623125 5.785625 8.80875 6.38375 9 7 C5.59687262 5.94124926 2.98646769 4.99097846 0 3 C0 2.01 0 1.02 0 0 Z " fill="#01F3FE" transform="translate(672,334)"/>
<path d="M0 0 C2.875 0.6875 2.875 0.6875 6 2 C7.375 4.625 7.375 4.625 8 7 C4.40608886 5.66511872 1.24509304 4.03977277 -2 2 C-1.34 1.34 -0.68 0.68 0 0 Z " fill="#01F0FE" transform="translate(575,276)"/>
<path d="M0 0 C2.78211944 0.37596209 4.5879284 0.67318459 6.8125 2.4375 C8 4 8 4 8 6 C7.34 6 6.68 6 6 6 C6 5.34 6 4.68 6 4 C4.02 3.34 2.04 2.68 0 2 C0 1.34 0 0.68 0 0 Z " fill="#00D5FE" transform="translate(335,638)"/>
<path d="M0 0 C4.7517398 0.43197635 6.92000054 1.32769295 10 5 C5.59885603 4.49701212 3.28804981 2.91227269 0 0 Z " fill="#04B9F7" transform="translate(246,648)"/>
<path d="M0 0 C1.32 0.66 2.64 1.32 4 2 C2.02 3.32 0.04 4.64 -2 6 C-2.66 5.67 -3.32 5.34 -4 5 C-3.34 4.01 -2.68 3.02 -2 2 C-1.34 2 -0.68 2 0 2 C0 1.34 0 0.68 0 0 Z " fill="#02B5F9" transform="translate(759,656)"/>
<path d="M0 0 C0.99 1.485 0.99 1.485 2 3 C1.01 3.495 1.01 3.495 0 4 C0 2.68 0 1.36 0 0 Z " fill="#0FA8E7" transform="translate(627,641)"/>
<path d="M0 0 C0.99 0.33 1.98 0.66 3 1 C1.68 1.33 0.36 1.66 -1 2 C-0.67 1.34 -0.34 0.68 0 0 Z " fill="#15CEF2" transform="translate(603,344)"/>
<path d="M0 0 C0.66 0 1.32 0 2 0 C2 0.66 2 1.32 2 2 C1.34 2 0.68 2 0 2 C0 1.34 0 0.68 0 0 Z " fill="#1FCDEA" transform="translate(697,264)"/>
<path d="M0 0 C0.99 0.495 0.99 0.495 2 1 C1.01 1.495 1.01 1.495 0 2 C0 1.34 0 0.68 0 0 Z " fill="#06A6ED" transform="translate(480,797)"/>
<path d="M0 0 C2 1 2 1 2 1 Z " fill="#08A6EA" transform="translate(489,803)"/>
<path d="" fill="#09A4EA" transform="translate(0,0)"/>
<path d="M0 0 C2 1 2 1 2 1 Z " fill="#04B7FB" transform="translate(626,672)"/>
<path d="" fill="#06B9FC" transform="translate(0,0)"/>
<path d="M0 0 C2 1 2 1 2 1 Z " fill="#00B3F9" transform="translate(692,632)"/>
<path d="" fill="#07B4F8" transform="translate(0,0)"/>
<path d="" fill="#0AB5F8" transform="translate(0,0)"/>
<path d="" fill="#0BC2FB" transform="translate(0,0)"/>
<path d="" fill="#0BC6FC" transform="translate(0,0)"/>
<path d="M0 0 C2 1 2 1 2 1 Z " fill="#08D3F4" transform="translate(749,312)"/>
<path d="M0 0 C2 1 2 1 2 1 Z " fill="#09DDFC" transform="translate(314,288)"/>
<path d="M0 0 C2 1 2 1 2 1 Z " fill="#09E0FB" transform="translate(354,264)"/>
<path d="M0 0 C2 1 2 1 2 1 Z " fill="#09DCF9" transform="translate(547,192)"/>
<path d="M0 0 C2 1 2 1 2 1 Z " fill="#0AE2FA" transform="translate(489,184)"/>
<path d="" fill="#454849" transform="translate(0,0)"/>
<path d="" fill="#414749" transform="translate(0,0)"/>
<path d="" fill="#404749" transform="translate(0,0)"/>
<path d="" fill="#4F4E4E" transform="translate(0,0)"/>
<path d="" fill="#444649" transform="translate(0,0)"/>
<path d="" fill="#3F464C" transform="translate(0,0)"/>
<path d="" fill="#4A4A4B" transform="translate(0,0)"/>
<path d="" fill="#515350" transform="translate(0,0)"/>
<path d="" fill="#3D474E" transform="translate(0,0)"/>
<path d="" fill="#404549" transform="translate(0,0)"/>
<path d="" fill="#3F464A" transform="translate(0,0)"/>
<path d="" fill="#45464A" transform="translate(0,0)"/>
<path d="" fill="#505151" transform="translate(0,0)"/>
<path d="" fill="#525252" transform="translate(0,0)"/>
<path d="" fill="#3D444A" transform="translate(0,0)"/>
<path d="" fill="#3B484F" transform="translate(0,0)"/>
<path d="" fill="#3C474E" transform="translate(0,0)"/>
<path d="" fill="#535453" transform="translate(0,0)"/>
<path d="" fill="#535353" transform="translate(0,0)"/>
<path d="" fill="#515052" transform="translate(0,0)"/>
<path d="" fill="#555553" transform="translate(0,0)"/>
<path d="" fill="#4B4C4C" transform="translate(0,0)"/>
<path d="" fill="#3C4649" transform="translate(0,0)"/>
<path d="" fill="#3E484C" transform="translate(0,0)"/>
<path d="" fill="#394851" transform="translate(0,0)"/>
<path d="" fill="#4C4E4D" transform="translate(0,0)"/>
<path d="" fill="#3A464D" transform="translate(0,0)"/>
<path d="" fill="#3A454C" transform="translate(0,0)"/>
<path d="" fill="#494A4B" transform="translate(0,0)"/>
<path d="" fill="#424648" transform="translate(0,0)"/>
<path d="" fill="#515151" transform="translate(0,0)"/>
<path d="" fill="#4F4F4F" transform="translate(0,0)"/>
<path d="" fill="#4D4D4F" transform="translate(0,0)"/>
<path d="" fill="#3B4349" transform="translate(0,0)"/>
<path d="" fill="#3A434B" transform="translate(0,0)"/>
<path d="" fill="#3D4548" transform="translate(0,0)"/>
<path d="" fill="#474949" transform="translate(0,0)"/>
<path d="" fill="#3C4447" transform="translate(0,0)"/>
<path d="" fill="#4C4E4D" transform="translate(0,0)"/>
<path d="" fill="#4D4D4E" transform="translate(0,0)"/>
<path d="" fill="#454849" transform="translate(0,0)"/>
<path d="" fill="#515150" transform="translate(0,0)"/>
<path d="" fill="#484A4A" transform="translate(0,0)"/>
<path d="" fill="#535252" transform="translate(0,0)"/>
<path d="" fill="#484A4A" transform="translate(0,0)"/>
<path d="" fill="#3C4349" transform="translate(0,0)"/>
<path d="" fill="#39464B" transform="translate(0,0)"/>
<path d="" fill="#354C57" transform="translate(0,0)"/>
<path d="" fill="#525150" transform="translate(0,0)"/>
<path d="" fill="#434849" transform="translate(0,0)"/>
<path d="" fill="#37474E" transform="translate(0,0)"/>
<path d="" fill="#47494A" transform="translate(0,0)"/>
<path d="" fill="#344D58" transform="translate(0,0)"/>
<path d="" fill="#474A4B" transform="translate(0,0)"/>
<path d="" fill="#515252" transform="translate(0,0)"/>
<path d="" fill="#525352" transform="translate(0,0)"/>
<path d="" fill="#364851" transform="translate(0,0)"/>
<path d="" fill="#37434A" transform="translate(0,0)"/>
<path d="" fill="#555554" transform="translate(0,0)"/>
<path d="" fill="#525152" transform="translate(0,0)"/>
<path d="" fill="#484C4A" transform="translate(0,0)"/>
<path d="" fill="#3A444A" transform="translate(0,0)"/>
<path d="" fill="#38444A" transform="translate(0,0)"/>
<path d="" fill="#35484E" transform="translate(0,0)"/>
<path d="" fill="#324C59" transform="translate(0,0)"/>
<path d="" fill="#3A474C" transform="translate(0,0)"/>
<path d="" fill="#545253" transform="translate(0,0)"/>
<path d="" fill="#324B56" transform="translate(0,0)"/>
<path d="" fill="#314C59" transform="translate(0,0)"/>
<path d="" fill="#3E464B" transform="translate(0,0)"/>
<path d="" fill="#525353" transform="translate(0,0)"/>
<path d="" fill="#4B4C4C" transform="translate(0,0)"/>
<path d="" fill="#4F504F" transform="translate(0,0)"/>
<path d="" fill="#4D4F4E" transform="translate(0,0)"/>
<path d="" fill="#494A4B" transform="translate(0,0)"/>
<path d="" fill="#3E454A" transform="translate(0,0)"/>
<path d="" fill="#39464A" transform="translate(0,0)"/>
<path d="" fill="#324E5E" transform="translate(0,0)"/>
<path d="" fill="#31505B" transform="translate(0,0)"/>
<path d="" fill="#37464F" transform="translate(0,0)"/>
<path d="" fill="#444B4B" transform="translate(0,0)"/>
<path d="" fill="#424649" transform="translate(0,0)"/>
<path d="" fill="#36454E" transform="translate(0,0)"/>
<path d="" fill="#3A464D" transform="translate(0,0)"/>
<path d="" fill="#555353" transform="translate(0,0)"/>
<path d="" fill="#314A55" transform="translate(0,0)"/>
<path d="" fill="#374953" transform="translate(0,0)"/>
<path d="" fill="#515151" transform="translate(0,0)"/>
<path d="" fill="#364750" transform="translate(0,0)"/>
<path d="" fill="#4D4F4F" transform="translate(0,0)"/>
<path d="" fill="#2D5163" transform="translate(0,0)"/>
<path d="" fill="#305161" transform="translate(0,0)"/>
<path d="" fill="#3B4951" transform="translate(0,0)"/>
<path d="" fill="#535454" transform="translate(0,0)"/>
<path d="" fill="#444D50" transform="translate(0,0)"/>
<path d="" fill="#494C50" transform="translate(0,0)"/>
<path d="" fill="#525252" transform="translate(0,0)"/>
<path d="" fill="#535353" transform="translate(0,0)"/>
<path d="" fill="#2F4D5E" transform="translate(0,0)"/>
<path d="" fill="#325063" transform="translate(0,0)"/>
<path d="" fill="#4B4E50" transform="translate(0,0)"/>
<path d="" fill="#285C79" transform="translate(0,0)"/>
<path d="" fill="#4E5152" transform="translate(0,0)"/>
<path d="" fill="#2F5B70" transform="translate(0,0)"/>
<path d="" fill="#525354" transform="translate(0,0)"/>
<path d="" fill="#515353" transform="translate(0,0)"/>
<path d="" fill="#545554" transform="translate(0,0)"/>
<path d="" fill="#06A4EC" transform="translate(0,0)"/>
<path d="" fill="#04A7EC" transform="translate(0,0)"/>
<path d="" fill="#05A2ED" transform="translate(0,0)"/>
<path d="" fill="#05A5EF" transform="translate(0,0)"/>
<path d="" fill="#555655" transform="translate(0,0)"/>
<path d="" fill="#4B5255" transform="translate(0,0)"/>
<path d="" fill="#555655" transform="translate(0,0)"/>
<path d="" fill="#44555E" transform="translate(0,0)"/>
<path d="" fill="#05A7F0" transform="translate(0,0)"/>
<path d="" fill="#07A9F0" transform="translate(0,0)"/>
<path d="" fill="#08A9EF" transform="translate(0,0)"/>
<path d="" fill="#05A7EE" transform="translate(0,0)"/>
<path d="" fill="#495459" transform="translate(0,0)"/>
<path d="" fill="#07A8EE" transform="translate(0,0)"/>
<path d="" fill="#4F545A" transform="translate(0,0)"/>
<path d="" fill="#07A8ED" transform="translate(0,0)"/>
<path d="" fill="#03A7F1" transform="translate(0,0)"/>
<path d="" fill="#4E565A" transform="translate(0,0)"/>
<path d="" fill="#04AAEE" transform="translate(0,0)"/>
<path d="" fill="#485760" transform="translate(0,0)"/>
<path d="" fill="#07A6ED" transform="translate(0,0)"/>
<path d="" fill="#06A4ED" transform="translate(0,0)"/>
<path d="" fill="#03BBFC" transform="translate(0,0)"/>
<path d="" fill="#06A6F1" transform="translate(0,0)"/>
<path d="" fill="#07A3EE" transform="translate(0,0)"/>
<path d="" fill="#08AAF3" transform="translate(0,0)"/>
<path d="" fill="#03BCF9" transform="translate(0,0)"/>
<path d="" fill="#00B8FB" transform="translate(0,0)"/>
<path d="" fill="#01B8FB" transform="translate(0,0)"/>
<path d="" fill="#03A3EE" transform="translate(0,0)"/>
<path d="" fill="#05B8FE" transform="translate(0,0)"/>
<path d="" fill="#07A7ED" transform="translate(0,0)"/>
<path d="" fill="#04B7FD" transform="translate(0,0)"/>
<path d="" fill="#545758" transform="translate(0,0)"/>
<path d="" fill="#50595B" transform="translate(0,0)"/>
<path d="" fill="#05B6FC" transform="translate(0,0)"/>
<path d="" fill="#03B5FA" transform="translate(0,0)"/>
<path d="" fill="#05A7F2" transform="translate(0,0)"/>
<path d="" fill="#05A4F0" transform="translate(0,0)"/>
<path d="" fill="#0BA8EE" transform="translate(0,0)"/>
<path d="" fill="#07A9EE" transform="translate(0,0)"/>
<path d="" fill="#04B4F7" transform="translate(0,0)"/>
<path d="" fill="#00B1F9" transform="translate(0,0)"/>
<path d="" fill="#54585A" transform="translate(0,0)"/>
<path d="" fill="#0BA6EE" transform="translate(0,0)"/>
<path d="" fill="#07BDFB" transform="translate(0,0)"/>
<path d="" fill="#01BAFC" transform="translate(0,0)"/>
<path d="" fill="#02B7F7" transform="translate(0,0)"/>
<path d="" fill="#01B5FA" transform="translate(0,0)"/>
<path d="" fill="#05BBFB" transform="translate(0,0)"/>
<path d="" fill="#04A0E3" transform="translate(0,0)"/>
<path d="" fill="#0E9DE2" transform="translate(0,0)"/>
<path d="" fill="#07BDFB" transform="translate(0,0)"/>
<path d="" fill="#565A5D" transform="translate(0,0)"/>
<path d="" fill="#01B9FD" transform="translate(0,0)"/>
<path d="" fill="#4F5C61" transform="translate(0,0)"/>
<path d="" fill="#07BBFA" transform="translate(0,0)"/>
<path d="" fill="#04B5FD" transform="translate(0,0)"/>
<path d="" fill="#09BEFC" transform="translate(0,0)"/>
<path d="" fill="#00B7FB" transform="translate(0,0)"/>
<path d="" fill="#585A5C" transform="translate(0,0)"/>
<path d="" fill="#585A5B" transform="translate(0,0)"/>
<path d="" fill="#08BEFA" transform="translate(0,0)"/>
<path d="" fill="#545B5E" transform="translate(0,0)"/>
<path d="" fill="#06BFF9" transform="translate(0,0)"/>
<path d="" fill="#54595D" transform="translate(0,0)"/>
<path d="" fill="#08BFF9" transform="translate(0,0)"/>
<path d="" fill="#59595B" transform="translate(0,0)"/>
<path d="" fill="#04B4FB" transform="translate(0,0)"/>
<path d="" fill="#565A5D" transform="translate(0,0)"/>
<path d="" fill="#565C5C" transform="translate(0,0)"/>
<path d="" fill="#09C5FA" transform="translate(0,0)"/>
<path d="" fill="#0AB3F9" transform="translate(0,0)"/>
<path d="" fill="#04B6FA" transform="translate(0,0)"/>
<path d="" fill="#09C6F8" transform="translate(0,0)"/>
<path d="" fill="#09C6FA" transform="translate(0,0)"/>
<path d="" fill="#0AB4F8" transform="translate(0,0)"/>
<path d="" fill="#0AC6FA" transform="translate(0,0)"/>
<path d="" fill="#525F64" transform="translate(0,0)"/>
<path d="" fill="#595A5A" transform="translate(0,0)"/>
<path d="" fill="#0BB5F9" transform="translate(0,0)"/>
<path d="" fill="#06BBF9" transform="translate(0,0)"/>
<path d="" fill="#09CCFA" transform="translate(0,0)"/>
<path d="" fill="#09B8F7" transform="translate(0,0)"/>
<path d="" fill="#57585A" transform="translate(0,0)"/>
<path d="" fill="#575B5C" transform="translate(0,0)"/>
<path d="" fill="#0CBDF9" transform="translate(0,0)"/>
<path d="" fill="#08D0FC" transform="translate(0,0)"/>
<path d="" fill="#07BFF8" transform="translate(0,0)"/>
<path d="" fill="#0CBDF8" transform="translate(0,0)"/>
<path d="" fill="#0DBEF9" transform="translate(0,0)"/>
<path d="" fill="#09C2FA" transform="translate(0,0)"/>
<path d="" fill="#0CC1F8" transform="translate(0,0)"/>
<path d="" fill="#0BC0F9" transform="translate(0,0)"/>
<path d="" fill="#08C1FA" transform="translate(0,0)"/>
<path d="" fill="#07DAFC" transform="translate(0,0)"/>
<path d="" fill="#555B5E" transform="translate(0,0)"/>
<path d="" fill="#595C5C" transform="translate(0,0)"/>
<path d="" fill="#09D4F9" transform="translate(0,0)"/>
<path d="" fill="#06DBFF" transform="translate(0,0)"/>
<path d="" fill="#08D8F8" transform="translate(0,0)"/>
<path d="" fill="#07C5FB" transform="translate(0,0)"/>
<path d="" fill="#06DBFA" transform="translate(0,0)"/>
<path d="" fill="#0DC4FA" transform="translate(0,0)"/>
<path d="" fill="#536368" transform="translate(0,0)"/>
<path d="" fill="#566466" transform="translate(0,0)"/>
<path d="" fill="#08C6FB" transform="translate(0,0)"/>
<path d="" fill="#05DDFF" transform="translate(0,0)"/>
<path d="" fill="#585D5D" transform="translate(0,0)"/>
<path d="" fill="#0DD7F9" transform="translate(0,0)"/>
<path d="" fill="#0CC5FC" transform="translate(0,0)"/>
<path d="" fill="#08CAFA" transform="translate(0,0)"/>
<path d="" fill="#0BC8FA" transform="translate(0,0)"/>
<path d="" fill="#0CD7FA" transform="translate(0,0)"/>
<path d="" fill="#0EC8FB" transform="translate(0,0)"/>
<path d="" fill="#585B5C" transform="translate(0,0)"/>
<path d="" fill="#0CC8FC" transform="translate(0,0)"/>
<path d="" fill="#06CCFA" transform="translate(0,0)"/>
<path d="" fill="#0CCEFB" transform="translate(0,0)"/>
<path d="" fill="#0CCCFB" transform="translate(0,0)"/>
<path d="" fill="#0DCBFD" transform="translate(0,0)"/>
<path d="" fill="#5A5C5B" transform="translate(0,0)"/>
<path d="" fill="#05E2FF" transform="translate(0,0)"/>
<path d="" fill="#06E3FF" transform="translate(0,0)"/>
<path d="" fill="#07D8FF" transform="translate(0,0)"/>
<path d="" fill="#09D9FE" transform="translate(0,0)"/>
<path d="" fill="#05DCFD" transform="translate(0,0)"/>
<path d="" fill="#575B5B" transform="translate(0,0)"/>
<path d="" fill="#4D7984" transform="translate(0,0)"/>
<path d="" fill="#05DAFC" transform="translate(0,0)"/>
<path d="" fill="#05DEFE" transform="translate(0,0)"/>
<path d="" fill="#565F5F" transform="translate(0,0)"/>
<path d="" fill="#19CDF0" transform="translate(0,0)"/>
<path d="" fill="#18CFF2" transform="translate(0,0)"/>
<path d="" fill="#0DCDEC" transform="translate(0,0)"/>
<path d="" fill="#595D5C" transform="translate(0,0)"/>
<path d="" fill="#0DD7F3" transform="translate(0,0)"/>
<path d="" fill="#0FD4F6" transform="translate(0,0)"/>
<path d="" fill="#546166" transform="translate(0,0)"/>
<path d="" fill="#0DD1F4" transform="translate(0,0)"/>
<path d="" fill="#566062" transform="translate(0,0)"/>
<path d="" fill="#0CD6FA" transform="translate(0,0)"/>
<path d="" fill="#595B5A" transform="translate(0,0)"/>
<path d="" fill="#585D5A" transform="translate(0,0)"/>
<path d="" fill="#0AD7F8" transform="translate(0,0)"/>
<path d="" fill="#585A5C" transform="translate(0,0)"/>
<path d="" fill="#0DDAFB" transform="translate(0,0)"/>
<path d="" fill="#09DDFA" transform="translate(0,0)"/>
<path d="" fill="#08DDF9" transform="translate(0,0)"/>
<path d="" fill="#09DFFB" transform="translate(0,0)"/>
<path d="" fill="#05DEF9" transform="translate(0,0)"/>
<path d="" fill="#0CE0FD" transform="translate(0,0)"/>
<path d="" fill="#575F61" transform="translate(0,0)"/>
<path d="" fill="#09E3FE" transform="translate(0,0)"/>
<path d="" fill="#08DBFA" transform="translate(0,0)"/>
<path d="" fill="#07DBFA" transform="translate(0,0)"/>
<path d="" fill="#08DFFE" transform="translate(0,0)"/>
<path d="" fill="#585A59" transform="translate(0,0)"/>
<path d="" fill="#04DDFB" transform="translate(0,0)"/>
<path d="" fill="#565D5D" transform="translate(0,0)"/>
<path d="" fill="#0AE1FD" transform="translate(0,0)"/>
<path d="" fill="#06E8FF" transform="translate(0,0)"/>
<path d="" fill="#575859" transform="translate(0,0)"/>
<path d="" fill="#07DEFB" transform="translate(0,0)"/>
<path d="" fill="#546264" transform="translate(0,0)"/>
<path d="" fill="#0AE0FD" transform="translate(0,0)"/>
<path d="" fill="#5A5B5A" transform="translate(0,0)"/>
<path d="" fill="#08E1FC" transform="translate(0,0)"/>
<path d="" fill="#0ADCFB" transform="translate(0,0)"/>
<path d="" fill="#535E61" transform="translate(0,0)"/>
<path d="" fill="#0ADFFC" transform="translate(0,0)"/>
<path d="" fill="#0AE1FB" transform="translate(0,0)"/>
<path d="" fill="#585657" transform="translate(0,0)"/>
<path d="" fill="#555B5B" transform="translate(0,0)"/>
<path d="" fill="#506A70" transform="translate(0,0)"/>
<path d="" fill="#565A5B" transform="translate(0,0)"/>
<path d="" fill="#545858" transform="translate(0,0)"/>
<path d="" fill="#545858" transform="translate(0,0)"/>
<path d="" fill="#17DCF3" transform="translate(0,0)"/>
<path d="" fill="#51595C" transform="translate(0,0)"/>
<path d="" fill="#535756" transform="translate(0,0)"/>
<path d="" fill="#575757" transform="translate(0,0)"/>
<path d="" fill="#545656" transform="translate(0,0)"/>
<path d="" fill="#545657" transform="translate(0,0)"/>
<path d="" fill="#50666B" transform="translate(0,0)"/>
<path d="" fill="#555755" transform="translate(0,0)"/>
<path d="" fill="#525A58" transform="translate(0,0)"/>
<path d="" fill="#545658" transform="translate(0,0)"/>
<path d="" fill="#525656" transform="translate(0,0)"/>
<path d="" fill="#545857" transform="translate(0,0)"/>
<path d="" fill="#565659" transform="translate(0,0)"/>
<path d="" fill="#575856" transform="translate(0,0)"/>
<path d="" fill="#555656" transform="translate(0,0)"/>
<path d="" fill="#555757" transform="translate(0,0)"/>
<path d="" fill="#585858" transform="translate(0,0)"/>
<path d="" fill="#565657" transform="translate(0,0)"/>
<path d="" fill="#55595A" transform="translate(0,0)"/>
<path d="" fill="#575757" transform="translate(0,0)"/>
<path d="" fill="#585757" transform="translate(0,0)"/>
<path d="" fill="#575755" transform="translate(0,0)"/>
<path d="" fill="#555656" transform="translate(0,0)"/>
<path d="" fill="#525C5E" transform="translate(0,0)"/>
<path d="" fill="#595858" transform="translate(0,0)"/>
<path d="" fill="#585656" transform="translate(0,0)"/>
<path d="" fill="#545856" transform="translate(0,0)"/>
<path d="" fill="#555D5C" transform="translate(0,0)"/>
<path d="" fill="#546163" transform="translate(0,0)"/>
<path d="" fill="#54686B" transform="translate(0,0)"/>
<path d="" fill="#585758" transform="translate(0,0)"/>
<path d="" fill="#565856" transform="translate(0,0)"/>
<path d="" fill="#555757" transform="translate(0,0)"/>
<path d="" fill="#565858" transform="translate(0,0)"/>
<path d="" fill="#575758" transform="translate(0,0)"/>
<path d="" fill="#575F60" transform="translate(0,0)"/>
<path d="" fill="#555A5C" transform="translate(0,0)"/>
<path d="" fill="#595757" transform="translate(0,0)"/>
<path d="" fill="#565756" transform="translate(0,0)"/>
<path d="" fill="#565657" transform="translate(0,0)"/>
<path d="" fill="#585757" transform="translate(0,0)"/>
<path d="" fill="#545859" transform="translate(0,0)"/>
<path d="" fill="#565759" transform="translate(0,0)"/>
<path d="" fill="#585858" transform="translate(0,0)"/>
<path d="" fill="#565756" transform="translate(0,0)"/>
<path d="" fill="#55676A" transform="translate(0,0)"/>
<path d="" fill="#565756" transform="translate(0,0)"/>
<path d="" fill="#565858" transform="translate(0,0)"/>
<path d="" fill="#565857" transform="translate(0,0)"/>
<path d="" fill="#555859" transform="translate(0,0)"/>
<path d="" fill="#5A5A59" transform="translate(0,0)"/>
<path d="" fill="#575656" transform="translate(0,0)"/>
<path d="" fill="#596263" transform="translate(0,0)"/>
<path d="" fill="#595859" transform="translate(0,0)"/>
<path d="" fill="#586568" transform="translate(0,0)"/>
<path d="" fill="#585F63" transform="translate(0,0)"/>
<path d="" fill="#585757" transform="translate(0,0)"/>
<path d="" fill="#595857" transform="translate(0,0)"/>
<path d="" fill="#585858" transform="translate(0,0)"/>
<path d="" fill="#575655" transform="translate(0,0)"/>
<path d="" fill="#555857" transform="translate(0,0)"/>
<path d="" fill="#575C5D" transform="translate(0,0)"/>
<path d="" fill="#575F5E" transform="translate(0,0)"/>
<path d="" fill="#595C5C" transform="translate(0,0)"/>
<path d="" fill="#565B5A" transform="translate(0,0)"/>
<path d="" fill="#585A58" transform="translate(0,0)"/>
<path d="" fill="#585758" transform="translate(0,0)"/>
<path d="" fill="#585757" transform="translate(0,0)"/>
<path d="" fill="#585858" transform="translate(0,0)"/>
<path d="" fill="#575857" transform="translate(0,0)"/>
<path d="" fill="#545759" transform="translate(0,0)"/>
<path d="" fill="#585959" transform="translate(0,0)"/>
<path d="" fill="#565B5C" transform="translate(0,0)"/>
<path d="" fill="#5A6667" transform="translate(0,0)"/>
<path d="" fill="#565755" transform="translate(0,0)"/>
</svg>
